Coordinates
version=1
nRows=12
nColumns=34
inDegrees=yes

Units are S.I. units (second, meters, Newtons, ...)
If the header above contains a line with 'inDegrees', this indicates whether rotational values are in degrees (yes) or radians (no).

endheader
time	pelvis_tilt	pelvis_list	pelvis_rotation	pelvis_tx	pelvis_ty	pelvis_tz	hip_flexion_r	hip_adduction_r	hip_rotation_r	knee_angle_r	ankle_angle_r	subtalar_angle_r	mtp_angle_r	hip_flexion_l	hip_adduction_l	hip_rotation_l	knee_angle_l	ankle_angle_l	subtalar_angle_l	mtp_angle_l	lumbar_extension	lumbar_bending	lumbar_rotation	arm_flex_r	arm_add_r	arm_rot_r	elbow_flex_r	pro_sup_r	arm_flex_l	arm_add_l	arm_rot_l	elbow_flex_l	pro_sup_l
      0.00000000	     -1.69031483	     -0.00501587	     -0.61728554	      1.66215130	      0.87073546	     -0.08990609	     -0.83170150	     -3.92074846	     -1.53655701	      4.56004674	      0.86837104	    -18.23446841	      0.00000000	     -1.61122594	     -5.92084816	     -4.40165318	      4.93427847	      9.25342575	     -1.71822643	      0.00000000	     -6.05829633	      2.31730279	     -3.14304077	     12.73009726	     -8.44836070	     37.95951586	     85.07123089	     98.95725659	      4.07149096	     -6.76911155	     28.28483578	     86.89450285	     95.70293658
      0.01666670	     -3.89330262	      0.37576244	     -0.68188852	      1.66410648	      0.86897924	     -0.09049138	      2.08066727	     -4.11190188	     -0.13743142	      5.10802621	      4.58729903	    -16.50363064	      0.00000000	      1.90567658	     -5.14772864	     -3.74222082	      5.78280441	      9.81200727	     -0.63511900	      0.00000000	     -2.95277176	      2.25624291	     -2.72898917	     10.68533233	     -8.32230168	     34.90479193	     84.82206482	     98.03763787	      2.88341493	     -7.09713608	     28.20594656	     87.30833143	     95.20584725
      0.03333330	     -3.97597099	      1.11695371	     -0.90401592	      1.66406364	      0.86921023	     -0.08973293	      1.84491253	     -5.05591667	     -0.22946321	      4.26848023	      5.00487156	    -15.75968223	      0.00000000	      1.89721647	     -4.55293140	     -4.17618144	      5.43497165	      9.25847635	     -0.29985488	      0.00000000	     -2.57899159	      1.36043565	     -1.87742053	     10.21473935	     -8.11305769	     33.92671959	     83.97707588	     97.48031540	      3.61886049	     -7.27103677	     28.06437114	     85.71017209	     94.56441389
      0.05000000	     -3.57097136	      1.65305678	     -0.94788127	      1.66415978	      0.87086408	     -0.08924424	      1.04914976	     -5.73653500	     -0.04401570	      3.66332360	      5.26074389	    -15.75377869	      0.00000000	      0.82463364	     -3.94590272	     -3.83511739	      4.45582077	      8.65449516	     -0.88329445	      0.00000000	     -2.95202228	      0.58920668	     -1.28030494	      9.85177727	     -8.15550105	     33.79441290	     83.56914284	     97.22375735	      4.27663945	     -7.51851998	     28.10619156	     84.94018928	     94.24399730
      0.06666670	     -3.66581967	      1.81265439	     -0.91117470	      1.66408619	      0.87132384	     -0.08894275	      0.96674828	     -5.86268662	      0.01738764	      3.27876375	      5.44278052	    -15.83745522	      0.00000000	      0.79332417	     -3.79367299	     -3.72821752	      4.19778489	      8.73159739	     -0.94892140	      0.00000000	     -3.01213306	      0.52241541	     -1.12833627	      9.76977710	     -7.99274220	     33.91340509	     83.60159398	     97.21259578	      4.37361199	     -7.59705934	     28.08077677	     84.88057368	     94.22917650
      0.08333330	     -2.80086463	      2.05826008	     -0.94697041	      1.66447197	      0.87257532	     -0.08842634	     -0.35265726	     -6.05300317	      0.49654899	      2.60991020	      5.33873722	    -16.42497551	      0.00000000	     -0.70525127	     -3.44146933	     -2.94547071	      3.21100214	      7.86642045	     -2.08437466	      0.00000000	     -3.74341790	      0.01795653	     -0.70210467	      9.83516354	     -8.16891491	     34.28230979	     84.01192177	     96.95020640	      5.16101426	     -7.61938348	     28.82895414	     84.21842066	     94.14793257
      0.10000000	     -2.78715972	      2.10068110	     -0.86635132	      1.66452287	      0.87238075	     -0.08810579	     -0.48058227	     -6.04374461	      0.62850744	      2.40088252	      5.42892575	    -16.47136628	      0.00000000	     -0.71713665	     -3.40663103	     -2.82404026	      3.20715972	      7.85515786	     -2.12189587	      0.00000000	     -3.62991934	     -0.02774922	     -0.62753477	      9.85976732	     -8.01378247	     34.35340880	     84.14538206	     96.92737744	      5.33331784	     -7.61875313	     28.84657079	     84.26474164	     94.14106351
      0.11666670	     -2.27781856	      2.14793822	     -0.78475561	      1.66450580	      0.87318229	     -0.08780138	     -1.34579100	     -6.04456203	      1.04133720	      1.83557125	      4.91239290	    -17.38461104	      0.00000000	     -1.42910135	     -3.31430296	     -1.94992820	      2.85459530	      7.17409600	     -3.32264531	      0.00000000	     -4.35460342	     -0.13700016	     -0.39715743	      9.83389535	     -8.41250635	     34.67749316	     85.25789315	     96.46546768	      6.06634349	     -7.82897455	     29.80416562	     84.13950969	     94.04406944
      0.13333330	     -2.27662997	      2.16388336	     -0.78272431	      1.66479579	      0.87390451	     -0.08715937	     -1.34724784	     -6.02582371	      1.04438495	      1.83016421	      4.91431715	    -17.38661382	      0.00000000	     -1.42856726	     -3.30929548	     -1.94537602	      2.85656735	      7.16925387	     -3.32100845	      0.00000000	     -4.35227226	     -0.13890997	     -0.39637085	      9.83479790	     -8.41574182	     34.67580851	     85.25943829	     96.46399249	      6.06812415	     -7.83087613	     29.80397669	     84.13858216	     94.04350801
      0.15000000	     -2.25290745	      2.14042492	     -0.80979938	      1.66524246	      0.87431218	     -0.08602610	     -1.45556103	     -5.93879323	      1.12740193	      1.67430477	      4.95843322	    -17.45057986	      0.00000000	     -1.45254929	     -3.39032168	     -1.76583102	      2.91793758	      6.99428922	     -3.23439666	      0.00000000	     -4.30428922	     -0.26768749	     -0.37543431	      9.87677549	     -8.53678726	     34.61931781	     85.30276210	     96.43421470	      6.10000655	     -7.96880983	     29.76461175	     84.08320928	     94.02917922
      0.16666670	     -2.23687355	      2.15193165	     -0.61701239	      1.66553869	      0.87442848	     -0.08560983	     -1.62541045	     -5.90325494	      1.26660374	      1.50454682	      4.96370210	    -17.54276026	      0.00000000	     -1.46271688	     -3.41857187	     -1.58987131	      2.86741152	      6.79102407	     -3.17228107	      0.00000000	     -4.34892756	     -0.22944840	     -0.39447997	      9.89323060	     -8.73987638	     34.52597796	     85.34987661	     96.38866502	      6.13775027	     -8.11409812	     29.72696499	     83.99293309	     94.00653438
      0.18333330	     -1.55372146	      2.10845217	     -0.52728971	      1.66564479	      0.87481486	     -0.08566915	     -2.75294562	     -5.82410154	      1.55671937	      0.82543873	      3.94575974	    -18.82776223	      0.00000000	     -2.38455298	     -3.46448347	     -0.77593901	      2.54542614	      6.13584929	     -3.96777652	      0.00000000	     -5.20728804	     -0.20036365	     -0.35518873	      9.75562859	     -8.97530634	     33.96830376	     86.24628593	     95.72183787	      6.63910517	     -8.08572260	     29.95659333	     83.44581924	     93.65269282
